Patient4_TMGait_0pt4_02_left_24_EMG.mot
version=1
nRows=37
nColumns=33
inDegrees=no
endheader
time	1LAddLong	2LGlutMax	3LGlutMed	4LIliopsoas	5LSemiMemb	6LBicFemLong	7LRecFem	8LVastMed	9LVastLat	10LGasMed	11LTibAnt	12lTibPost	13LPeroneusLong	14LSol	15LExtDigLong	16LFlexDigLong	17RAddLong	18RGlutMax	19RGlutMed	20RIliopsoas	21RSemiMemb	22RBicFemLong	23RRecFem	24RVastMed	25RVastLat	26RGasMed	27RTibAnt	28RTibPost	29RPeroneusLong	30RSol	31RExtDigLong	32RFlexDigLong
33.155	-0.005341	-0.039063	-0.15442	0.012817	0.00351	-0.060272	0.12329	0.010986	-0.001221	-0.17929	0.001373	-0.01709	-0.005035	-0.11292	-0.11673	0.005646	-0.034637	0.26901	0.46631	-0.059814	0.66986	-0.021057	-0.24139	-0.036469	0.14343	0.002747	0.38742	0.007172	-0.11032	-0.16602	0.005493	-0.006561
33.156	0.000153	-0.018158	-0.15533	-0.000916	0.006561	-0.057526	0.14099	-0.003662	0.016479	-0.084839	-0.009766	-0.014191	-0.013885	-0.10712	-0.048218	0.005646	-0.032654	0.25177	0.02533	-0.045624	0.61691	-0.003967	-0.18082	-0.1088	0.14587	0.003662	0.50217	0.005035	-0.088959	-0.16968	-0.002747	-0.017548
33.157	0.007172	0.000763	-0.16769	0.01297	0.008087	-0.072021	0.11368	-0.00824	0.01358	-0.056915	0.0354	-0.018921	-0.015869	-0.064545	0.089111	0.007935	0.026703	0.22201	-0.056305	-0.023499	0.6987	0.007019	-0.11276	-0.18906	0.10315	-0.000916	0.37506	0.000153	-0.12772	-0.11795	-0.001984	-0.016479
33.158	0.006409	0.023651	-0.11902	0.017853	0.018158	-0.020142	0.15305	-0.010071	-0.048065	-0.033112	-0.02594	-0.018311	0.000153	-0.000458	0.55069	-0.005798	0.052643	0.20218	-0.28656	-0.072479	0.81238	-0.001068	-0.096741	-0.099792	0.1033	0.003204	0.21301	0.003967	-0.11856	-0.10468	-0.000458	-0.016632
33.159	0.003052	0.013733	-0.16846	0.020752	0.019226	0.056458	0.17563	0.009155	-0.05661	-0.044403	0.054169	-0.023956	0.025177	0.008545	-0.14084	0.00824	0.064392	0.2887	-0.11444	-0.12131	0.77515	-0.011749	-0.12528	-0.12528	0.12451	-0.000305	0.028687	0.007629	-0.13336	-0.081635	-0.000305	-0.019684
33.16	0.00885	0.021667	-0.27008	0.022888	0.013275	0.13534	0.20599	0.002136	-0.031433	-0.016479	0.025024	-0.02243	-0.010834	0.01358	-0.049438	0.00473	0.076752	0.26077	0.17761	-0.10834	0.61569	0.048523	-0.1236	-0.095978	0.081177	0.002594	0.13565	0.003967	-0.054626	-0.055695	-0.004578	-0.016174
33.161	0.003357	0.041504	-0.22934	0.015259	0.019989	0.24445	0.17349	0.006104	-0.019989	-0.027771	-0.007782	-0.000916	-0.024261	0.045624	-0.078888	0.007935	0.09552	0.38086	-0.024719	-0.026093	0.61645	0.065918	-0.10742	-0.088654	0.07309	0.003357	0.068359	0.000763	0.019531	-0.037384	-0.00061	-0.014038
33.162	0.000153	0.007019	-0.057983	0.00946	0.019989	0.42374	0.2214	0.014801	-0.00885	-0.009003	-0.067291	-0.014648	0.030823	0.041656	-0.11063	-0.00351	0.067139	0.36255	-0.30182	0.019379	0.69412	0.042877	-0.10376	-0.029602	0.081024	0.007629	-0.19653	0.007172	0.059357	-0.014038	-0.002747	-0.006104
33.163	-0.005646	-0.010834	-0.10803	0.015411	0.012817	0.46402	0.23422	0.005646	-0.014343	0.004578	0.023346	-0.013885	0.011749	0.03006	0.058899	-0.007935	0.012665	0.2684	-0.70541	0.054932	0.5896	0.05188	-0.060425	-0.048523	-0.076904	0.005646	-0.47913	0.005188	0.17685	-0.046844	-0.004272	-0.006714
33.164	0.003357	0.018158	-0.11536	0.013428	0.016479	0.31174	0.23987	-0.004578	-0.000458	0.015259	0.050049	0.006104	-0.021973	0.033875	0.2684	-0.001526	-0.014801	0.28091	-0.32516	0.050049	0.49149	0.012054	-0.014801	-0.023956	-0.10376	0.009308	-0.34897	0.004883	0.044098	-0.060425	-0.005035	-0.007019
33.165	0.005646	0.01358	0.056458	0.016632	0.018158	0.10712	0.18662	-0.00412	0.045013	0.018921	-0.093231	-0.005493	-0.023956	0.044708	0.047302	0.005341	-0.005493	0.30807	0.78217	0.001831	0.53574	0.050201	-0.000916	-0.065765	-0.083923	0.00946	-0.26154	0.003357	0.12573	-0.068359	-0.000305	-0.001373
33.166	0.005646	0.013885	0.057678	0.019531	0.015717	-0.091858	0.18158	-0.001221	0.069122	0.00473	-0.16647	0.00351	0.009766	0.049591	-0.082092	-0.01236	0.082397	0.32608	0.13825	0.012665	0.72235	0.03006	-0.010071	-0.18692	-0.065765	0.005188	-0.12604	0.001373	-0.10223	0	-0.00412	-0.010376
33.167	0.011139	-0.001526	-0.003662	0.004425	0.010986	-0.13367	0.17883	0.000763	0.05188	0.022583	0.029755	0.006409	0.031433	0.036469	-0.072327	-0.00061	0.14725	0.32944	-0.51163	0.048981	0.80063	-0.065002	0.037079	-0.33447	-0.11047	-0.002289	-0.010986	-0.002441	-0.32593	0.003052	-0.00885	-0.000305
33.168	0.005493	0.003204	-0.010376	0.015259	0.025024	-0.2919	0.17288	0.004883	0.04715	0.006866	0.11841	-0.005341	0.078278	0.039215	-0.09552	-0.015564	0.20096	0.42908	-0.51743	0.011749	0.62241	-0.11368	0.068665	-0.40543	-0.11108	-0.002441	0.057373	-0.002136	0.13123	0.026855	-0.001984	-0.001068
33.169	0.008392	0.05188	-0.038757	0.013428	0.015869	-0.25528	0.18616	-0.001984	0.073547	-0.022125	0.20721	0.003662	0.077362	0.07782	0.12711	-0.001526	0.20767	0.46387	-0.36484	0.012054	0.40253	-0.10666	0.042572	-0.45456	-0.087891	-0.006714	0.019226	0.002136	0.35782	-0.053711	0.002136	-0.002594
33.17	0.002594	0.089417	-0.002899	0.01297	0.018921	-0.29236	0.14587	-0.000458	0.041351	-0.015869	0.21744	0.008545	0.026093	0.066376	0.44922	0.003204	0.11414	0.55924	-0.066376	-0.041809	0.1062	-0.029907	0.006561	-0.52017	-0.025177	-0.008545	0.014648	-0.007782	-0.27756	-0.05188	-0.002441	-0.000305
33.171	0.001526	0.11383	-0.059357	0.001068	0.01709	-0.31708	0.2121	-0.005646	0.011444	-0.0177	-0.09903	-0.013428	-0.002899	0.070343	0.33249	0.002136	0.01297	0.6105	-0.088806	0.000153	-0.015106	0.11353	-0.080414	-0.49103	-0.018158	-0.007629	0.014648	0	-0.21835	-0.042877	-0.001373	-0.005798
33.172	0.002594	0.1033	-0.088348	-0.006714	0.01297	-0.26932	0.2034	0.000305	0.022125	-0.004883	-0.1622	0.009003	0.005646	0.11551	0.23056	-0.00412	-0.10223	0.58304	-0.19379	0.026245	0.22324	0.13321	-0.159	-0.45639	0.006866	-0.008545	-0.024109	0.000305	-0.31448	0.037079	-0.00351	-0.007477
33.173	0.001526	0.15152	-0.065308	-0.001984	0.004425	-0.10696	0.20401	0.006866	0.01709	-0.008545	-0.12299	0.010071	0.007477	0.12268	0.028076	-0.003357	-0.20859	0.59082	-0.20401	0.034485	0.53284	0.16983	-0.27786	-0.041199	0.10284	-0.005951	0.040283	-0.00061	-0.97611	0.091553	-0.000305	-0.010376
33.174	-0.002136	0.15579	-0.041199	0.006256	-0.001068	-0.062103	0.1973	0.003967	-0.019379	-0.001526	-0.058594	-0.012665	-0.024261	0.11902	-0.15091	-0.000458	-0.2533	0.60837	-0.21011	0.019989	0.87555	0.12375	-0.32806	0.34378	0.14938	0.010071	0.061951	-0.000916	-0.27344	0.084381	-0.009766	-0.020599
33.175	0.003204	0.1828	-0.09613	0.021667	0.010376	-0.035248	0.20706	0.004272	-0.059052	-0.015106	-0.11429	0.003204	0.048828	0.10284	-0.090179	0.001678	-0.20966	0.58426	-0.23651	-0.019531	1.0054	-0.006256	-0.26077	0.49606	0.12009	0.010986	-0.032959	-0.000305	1.5073	0.050964	-0.00061	-0.022888
33.176	0.008392	0.15701	-0.042114	0.013885	0	0.014038	0.22034	0.005798	0.012512	-0.019989	-0.19791	0.002289	0.050049	0.10727	0.013275	0.001373	-0.12741	0.55344	-0.23789	-0.095062	0.57236	-0.094452	-0.1918	0.41229	0.053406	0.00351	-0.010223	0.000305	0.60288	-0.00824	-0.001068	-0.016785
33.177	0.003967	0.17822	-0.059814	0.014343	0.002136	-0.012512	0.25497	0.007172	-0.013123	-0.016022	-0.10941	0.015259	-0.015259	0.02533	-0.29511	0.000305	-0.083313	0.54932	-0.31235	-0.059204	0.3595	-0.13306	-0.14542	0.30258	0.032043	0.006409	0.00473	-0.000458	0.34042	-0.038147	0.001984	-0.013123
33.178	-0.000763	0.20874	-0.042114	0.006409	0.016479	-0.029602	0.28229	-0.001984	-0.028839	-0.002747	0.073395	0.020142	-0.052795	-0.054169	-0.49789	-0.00824	-0.072632	0.48828	-0.34515	0.016785	0.48996	-0.080872	-0.14252	0.2536	0.048828	-0.007324	-0.00824	-0.005951	-0.17197	-0.092163	-0.002136	-0.014648
33.179	0.008698	0.2153	-0.086365	-0.003052	0.0383	-0.06073	0.27313	-0.000458	-0.050201	-0.005035	0.16357	0.00351	-0.009613	-0.038452	-0.28351	-0.009003	-0.050507	0.45258	-0.26749	0.14175	0.59128	-0.037689	-0.13351	0.27893	0.092163	0.001526	0.014954	-0.008698	-0.16312	-0.079651	0.000916	-0.011139
33.18	0.011139	0.18662	-0.040283	-0.005035	0.042877	-0.028381	0.2298	0.001831	-0.02182	-0.009155	0.17227	0.001068	-0.01709	-0.013275	-0.13001	-0.012512	-0.000305	0.36987	-0.30975	0.17731	0.46463	-0.017395	-0.019379	0.23254	0.076599	0.000153	0.02182	-0.005951	0.34714	-0.062714	-0.001678	-0.010834
33.181	0.003967	0.20172	-0.058899	0.016632	0.026703	-0.011444	0.22461	-0.00473	0.045624	-0.003357	0.025024	-0.011597	0.001221	-0.073547	-0.11627	-0.025024	0.070343	0.27344	-0.2446	0.097809	0.30609	0.015106	0.055389	0.11032	0.032654	-0.00351	0.049896	-0.007629	0.068817	0.018311	-0.002441	-0.008087
33.182	0.006714	0.20203	-0.053101	0.035553	0.024414	0.024109	0.2446	-0.007477	0.031281	0.004272	0.005798	-0.019073	0.005951	-0.21255	0.023346	-0.008087	0.1738	0.23575	-0.20645	0.067749	0.36331	-0.054626	0.14648	-0.063477	0.000305	0.001221	0.043488	-0.006866	-0.20798	-0.004425	-0.001831	-0.000916
33.183	-0.000153	0.1915	-0.080109	0.022888	0.012665	0.05127	0.23941	-0.006714	0.010986	0.00824	0.008392	-0.003815	-0.00412	-0.26535	0.053101	-0.007324	0.215	0.20279	-0.215	0.07431	0.19333	-0.10803	0.11459	-0.15823	-0.007172	-0.007935	0.23041	0.005646	-0.23239	-0.079956	-0.000916	-0.000916
33.184	0.000305	0.22156	-0.061188	0.009003	0.020752	0.098724	0.26733	0.001678	0.003815	0.011444	0.011139	-0.000153	0.000305	-0.18051	0.09491	-0.004425	0.18814	0.13962	-0.21545	0.11246	0.014954	-0.1445	0.069275	-0.16037	0.010529	-0.004883	0.21957	-0.00824	-0.16678	-0.084076	-0.002136	-0.002747
33.185	0.003052	0.21515	-0.010223	0.002289	0.016937	0.072327	0.2739	0.002441	0.003662	0.005035	0.014343	0.005646	0.015106	-0.112	0.10239	0.006256	0.059814	0.03952	-0.1918	0.069275	-0.074768	-0.080109	-0.071259	-0.051727	0.032501	-0.006409	0.34988	-0.010529	-0.18234	-0.059967	-0.002899	-0.004425
33.186	0.005646	0.19684	-0.042419	0.00885	0.002441	0.032349	0.29037	0.002289	0.014954	0.000305	0.003967	-0.013733	0.005188	-0.11658	0.099487	-0.006561	0.008545	0.040588	-0.17212	0.009003	0.009308	-0.054474	-0.092468	-0.009766	0.043488	-0.010071	0.51422	-0.006561	-0.077057	-0.1033	-0.00824	-0.004883
33.187	0.001373	0.20737	-0.064392	-0.003204	0.007629	0.0354	0.27649	0.003052	0.003662	0.001984	-0.027924	0.003052	-0.007172	-0.038452	0.10544	-0.010529	0.046082	0.027161	-0.1741	-0.016174	0.37781	-0.12421	-0.20432	-0.1445	0.031433	0.001221	0.59311	-0.002899	0.058899	-0.095978	-0.003815	-0.001221
33.188	-0.002747	0.21271	-0.066833	0.003052	-0.012817	-0.002136	0.24307	0.002441	0.00473	0.03067	-0.029449	-0.019226	-0.041962	-0.044556	0.12772	0.000305	0.089417	0.006256	-0.12817	0.003815	0.62714	-0.21469	-0.24231	-0.16861	0.018463	0.004578	-0.26581	-0.001373	-0.045929	-0.07019	-0.002136	0.002899
33.189	-0.002136	0.18875	-0.078583	0.007019	-0.010223	-0.032196	0.21774	0.000763	0.011139	0.015564	-0.016022	-0.010986	-0.021973	-0.048218	0.077515	-0.003662	0.10452	-0.007019	-0.10635	0.040588	0.50446	-0.31097	-0.21576	-0.23789	0.008087	-0.001373	-0.28366	-0.004578	-0.18631	-0.005035	-0.001831	-0.000916
33.19	0.000763	0.18326	-0.069885	-0.002136	0.001068	-0.060272	0.18631	-0.013885	-0.006409	-0.001831	0.015717	-0.009308	-0.013275	0.001068	0.002136	-0.010529	0.17761	-0.000153	-0.022278	0.018158	0.1712	-0.33752	-0.103	-0.33127	-0.035858	-0.008545	-0.48935	-0.006561	0.079803	0.028992	0.001831	-0.01236
33.191	0.000763	0.17212	-0.092926	-0.000305	0.013428	-0.033722	0.18585	-0.00351	-0.007782	0.005035	0.059509	-0.005341	-0.040894	0.006256	0.10849	0.000153	0.13794	0.031433	-0.013123	0.021973	0.029755	-0.23285	-0.074158	-0.35599	0.006104	-0.003967	-0.35523	-0.00412	0.30167	-0.040588	-0.003967	-0.005798
